# xmcd
#
# Track frame offsets:
#	182
#	11232
#	22275
#	32650
#	42992
#	52987
#	61942
#	71840
#	80467
#	91597
#	100672
#	112077
#	122252
#	132565
#
# Disc length: 1901
#
# Revision: 2
# Processed by: cddbd v1.5.1PL0 Copyright (c) Steve Scherf et al.
# Submitted via: CDex 1.40Beta9
# Normalized: r0:DSETVAR1,TDELIM( - ),TSWAP
#
DISCID=b9076b0e
DTITLE=Various Artist - 50's NO1s Volume 2
DYEAR=1900
DGENRE=Blues
TTITLE0=Tommy Steele - Singing the Blues
TTITLE1=Paul Anker - Diana
TTITLE2=Connie Francis - Stupid Cupid
TTITLE3=Everly Brothers - Claudette
TTITLE4=Conway Twitty - It's Only Make believe
TTITLE5=Elvis Presley - All Shook Up
TTITLE6=Bill Haley and his comets - Rock Around The Clock
TTITLE7=Jerry Lee Lewis - Great Balls Of Fire
TTITLE8=Elvis Presley - Jailhouse Rock
TTITLE9=Lonnie Donegan - Cumberland Gap
TTITLE10=Johnnie Ray - Yes Tonight Josephine
TTITLE11=Guy Mitchell - Rock-A Billy
TTITLE12=Lord Rockingham's XI - Hoots Mon
TTITLE13=Buddy Holly and the Crickets - That'll Be The Day
EXTD=ID3G: 0
EXTT0=
EXTT1=
EXTT2=
EXTT3=
EXTT4=
EXTT5=
EXTT6=
EXTT7=
EXTT8=
EXTT9=
EXTT10=
EXTT11=
EXTT12=
EXTT13=
PLAYORDER=
